<svg id="visual" viewBox="0 0 2500 1300" width="2500" height="1300" xmlns="http://www.w3.org/2000/svg" xmlns:xlink="http://www.w3.org/1999/xlink" version="1.1"><rect x="0" y="0" width="2500" height="1300" fill="#222222"></rect><path d="M0 1042L59.5 1042.5C119 1043 238 1044 357 1018.5C476 993 595 941 714 918.7C833 896.3 952 903.7 1071.2 930.8C1190.3 958 1309.7 1005 1428.8 1015C1548 1025 1667 998 1786 980.7C1905 963.3 2024 955.7 2143 950.3C2262 945 2381 942 2440.5 940.5L2500 939L2500 1301L2440.5 1301C2381 1301 2262 1301 2143 1301C2024 1301 1905 1301 1786 1301C1667 1301 1548 1301 1428.8 1301C1309.7 1301 1190.3 1301 1071.2 1301C952 1301 833 1301 714 1301C595 1301 476 1301 357 1301C238 1301 119 1301 59.5 1301L0 1301Z" fill="#e74c3c"></path><path d="M0 1084L59.5 1086C119 1088 238 1092 357 1094.8C476 1097.7 595 1099.3 714 1102.3C833 1105.3 952 1109.7 1071.2 1091.7C1190.3 1073.7 1309.7 1033.3 1428.8 1025C1548 1016.7 1667 1040.3 1786 1060.2C1905 1080 2024 1096 2143 1099.3C2262 1102.7 2381 1093.3 2440.5 1088.7L2500 1084L2500 1301L2440.5 1301C2381 1301 2262 1301 2143 1301C2024 1301 1905 1301 1786 1301C1667 1301 1548 1301 1428.8 1301C1309.7 1301 1190.3 1301 1071.2 1301C952 1301 833 1301 714 1301C595 1301 476 1301 357 1301C238 1301 119 1301 59.5 1301L0 1301Z" fill="#e03b4c"></path><path d="M0 1178L59.5 1173.7C119 1169.3 238 1160.7 357 1141.2C476 1121.7 595 1091.3 714 1078.5C833 1065.7 952 1070.3 1071.2 1079.2C1190.3 1088 1309.7 1101 1428.8 1101.5C1548 1102 1667 1090 1786 1083C1905 1076 2024 1074 2143 1075.5C2262 1077 2381 1082 2440.5 1084.5L2500 1087L2500 1301L2440.5 1301C2381 1301 2262 1301 2143 1301C2024 1301 1905 1301 1786 1301C1667 1301 1548 1301 1428.8 1301C1309.7 1301 1190.3 1301 1071.2 1301C952 1301 833 1301 714 1301C595 1301 476 1301 357 1301C238 1301 119 1301 59.5 1301L0 1301Z" fill="#d52c5b"></path><path d="M0 1192L59.5 1199.3C119 1206.7 238 1221.3 357 1221.7C476 1222 595 1208 714 1203.5C833 1199 952 1204 1071.2 1212.5C1190.3 1221 1309.7 1233 1428.8 1227.5C1548 1222 1667 1199 1786 1189.3C1905 1179.7 2024 1183.3 2143 1183.2C2262 1183 2381 1179 2440.5 1177L2500 1175L2500 1301L2440.5 1301C2381 1301 2262 1301 2143 1301C2024 1301 1905 1301 1786 1301C1667 1301 1548 1301 1428.8 1301C1309.7 1301 1190.3 1301 1071.2 1301C952 1301 833 1301 714 1301C595 1301 476 1301 357 1301C238 1301 119 1301 59.5 1301L0 1301Z" fill="#c62368"></path></svg>